<?xml version="1.0" standalone="no"?>
<!DOCTYPE svg PUBLIC "-//W3C//DTD SVG 20010904//EN"
 "http://www.w3.org/TR/2001/REC-SVG-20010904/DTD/svg10.dtd">
<svg version="1.0" xmlns="http://www.w3.org/2000/svg"
 width="640.000000pt" height="640.000000pt" viewBox="0 0 640.000000 640.000000"
 preserveAspectRatio="xMidYMid meet">
<metadata>
Created by potrace 1.14, written by Peter Selinger 2001-2017
</metadata>
<g transform="translate(0.000000,640.000000) scale(0.100000,-0.100000)"
fill="#000000" stroke="none">
<path d="M2703 4467 l-491 -502 114 -3 114 -3 2 -327 3 -327 308 -3 307 -2 0
270 0 270 140 0 140 0 0 -270 0 -270 308 2 307 3 3 328 2 327 117 0 116 0
-176 180 -177 179 0 236 0 235 -140 0 -140 0 0 -92 -1 -93 -177 183 c-97 100
-179 182 -182 182 -3 0 -226 -227 -497 -503z"/>
<path d="M1230 3375 l0 -55 425 0 425 0 0 55 0 55 -425 0 -425 0 0 -55z"/>
<path d="M4320 3375 l0 -55 425 0 425 0 0 55 0 55 -425 0 -425 0 0 -55z"/>
<path d="M20 3000 c-11 -11 -20 -27 -20 -35 0 -8 9 -24 20 -35 20 -20 33 -20
3180 -20 3147 0 3160 0 3180 20 11 11 20 27 20 35 0 8 -9 24 -20 35 -20 20
-33 20 -3180 20 -3147 0 -3160 0 -3180 -20z"/>
<path d="M3550 2165 l0 -465 95 0 95 0 0 369 0 370 -57 95 c-57 94 -59 96 -95
96 l-38 0 0 -465z"/>
<path d="M20 2100 l0 -400 110 0 110 0 0 175 0 175 140 0 140 0 0 -175 0 -175
110 0 110 0 0 400 0 401 -107 -3 -108 -3 -3 -172 -2 -173 -140 0 -140 0 0 175
0 175 -110 0 -110 0 0 -400z"/>
<path d="M1136 2350 c-108 -19 -214 -100 -259 -198 -31 -68 -30 -188 2 -259
57 -128 215 -215 364 -199 226 23 372 241 296 441 -57 152 -231 244 -403 215z
m155 -106 c44 -40 63 -94 67 -195 5 -117 -13 -191 -57 -233 -56 -54 -146 -51
-194 6 -87 104 -71 368 27 430 40 25 125 21 157 -8z"/>
<path d="M1956 2349 c-53 -13 -91 -43 -123 -96 l-26 -46 -30 67 c-29 65 -30
66 -68 66 l-39 0 0 -320 0 -320 94 0 94 0 4 228 c3 191 7 234 22 270 34 79
105 85 147 12 11 -19 15 -84 19 -265 l5 -240 95 0 95 0 5 225 c6 233 11 263
52 308 23 24 66 29 100 11 46 -25 66 -141 49 -295 -12 -106 -50 -264 -76 -313
-14 -29 -14 -30 23 -51 l37 -22 43 48 c51 58 126 204 147 289 62 244 -3 415
-168 446 -85 15 -152 -6 -205 -66 l-39 -44 -33 40 c-18 23 -47 47 -64 54 -45
19 -115 25 -160 14z"/>
<path d="M2973 2350 c-95 -20 -168 -79 -212 -170 -23 -49 -26 -67 -26 -160 0
-91 4 -112 25 -155 55 -111 146 -169 270 -169 65 -1 82 3 123 27 26 15 48 33
48 40 1 7 4 -4 8 -23 l6 -35 93 -3 92 -3 0 321 0 320 -37 0 c-36 0 -40 -4 -76
-66 l-39 -66 -15 29 c-46 88 -153 135 -260 113z m172 -120 c41 -38 60 -104 60
-205 -1 -151 -54 -235 -149 -235 -43 0 -88 36 -109 87 -34 86 -29 241 9 316
35 67 136 87 189 37z"/>
<path d="M5353 2349 c-165 -32 -266 -158 -266 -332 0 -135 67 -237 193 -296
46 -21 69 -25 140 -25 125 1 203 35 268 118 30 39 28 53 -13 66 -35 12 -37 11
-75 -33 -50 -56 -85 -71 -155 -65 -80 7 -131 51 -151 131 -7 28 -7 28 32 20
22 -4 80 -8 129 -7 128 1 219 45 261 126 17 32 18 115 3 155 -26 70 -117 127
-226 143 -77 11 -82 11 -140 -1z m152 -93 c43 -18 68 -66 69 -129 0 -53 -24
-94 -68 -115 -29 -15 -144 -18 -197 -7 l-32 7 7 55 c18 154 112 234 221 189z"/>
<path d="M6152 2350 c-50 -12 -109 -56 -134 -100 -13 -22 -25 -40 -28 -40 -3
0 -20 29 -38 65 -31 64 -32 65 -72 65 l-40 0 2 -317 3 -318 91 -3 92 -3 5 213
c3 167 8 223 22 261 44 122 150 113 201 -18 9 -25 20 -42 24 -40 5 3 29 41 55
85 41 70 45 83 34 97 -33 39 -152 69 -217 53z"/>
<path d="M3810 2334 c0 -3 62 -145 137 -315 l137 -310 -63 -125 c-35 -69 -62
-126 -60 -128 2 -2 19 -11 38 -21 33 -17 35 -17 48 1 30 40 116 200 152 282
66 150 251 601 251 612 0 6 -26 10 -64 10 l-65 0 -67 -205 c-38 -112 -72 -201
-75 -197 -4 4 -47 96 -94 205 l-87 197 -94 0 c-52 0 -94 -3 -94 -6z"/>
<path d="M4490 2300 l0 -40 160 0 c88 0 160 -2 160 -5 0 -3 -72 -111 -161
-241 -145 -213 -160 -238 -157 -272 l3 -37 268 -3 267 -2 0 45 0 45 -159 2
-159 3 159 233 c139 204 159 238 159 273 l0 39 -270 0 -270 0 0 -40z"/>
</g>
</svg>
